<?xml version="1.0" encoding="utf-8"?>
<!-- Generator: Adobe Illustrator 16.0.0, SVG Export Plug-In . SVG Version: 6.00 Build 0)  -->
<!DOCTYPE svg PUBLIC "-//W3C//DTD SVG 1.1//EN" "http://www.w3.org/Graphics/SVG/1.1/DTD/svg11.dtd">
<svg version="1.1" id="Layer_1" xmlns="http://www.w3.org/2000/svg" xmlns:xlink="http://www.w3.org/1999/xlink" x="0px" y="0px"
	 width="133px" height="120px" viewBox="108.5 0 133 120" enable-background="new 108.5 0 133 120" xml:space="preserve">
<g>
	<g>
		<circle id="XMLID_1909_" opacity="0.5" fill="#920100" cx="175" cy="109.096" r="8.67"/>
		<circle id="XMLID_1907_" opacity="0.5" fill="#920100" cx="175" cy="10.905" r="8.67"/>
		<circle id="XMLID_1905_" opacity="0.5" fill="#920100" cx="224.096" cy="60" r="8.67"/>
		<circle id="XMLID_1903_" opacity="0.5" fill="#920100" cx="125.905" cy="60" r="8.67"/>
		<path fill="#666666" d="M175,85.174c-1.228,0-2.235,1.007-2.235,2.235v11.003c-4.937,1.031-8.67,5.428-8.67,10.684
			c0,6.018,4.888,10.904,10.905,10.904c6.018,0,10.904-4.887,10.904-10.904c0-5.256-3.732-9.652-8.67-10.684V87.409
			C177.234,86.181,176.229,85.174,175,85.174z M181.459,109.096c0,3.561-2.898,6.459-6.459,6.459c-3.561,0-6.459-2.898-6.459-6.459
			c0-3.562,2.898-6.459,6.459-6.459C178.561,102.637,181.459,105.534,181.459,109.096z"/>
		<path fill="#666666" d="M200.592,88.735c-1.154,1.769-1.793,3.807-1.793,5.968c0,2.923,1.129,5.648,3.192,7.712
			s4.79,3.192,7.712,3.192c2.923,0,5.648-1.129,7.712-3.192s3.192-4.789,3.192-7.712c0-2.922-1.129-5.648-3.192-7.712
			s-4.789-3.192-7.712-3.192c-2.161,0-4.225,0.613-5.968,1.793l-7.786-7.785c-0.859-0.86-2.283-0.86-3.143,0
			c-0.86,0.859-0.86,2.283,0,3.143L200.592,88.735z M214.271,90.16c2.505,2.504,2.505,6.605,0,9.136
			c-1.229,1.228-2.85,1.892-4.568,1.892s-3.34-0.664-4.568-1.892c-2.505-2.505-2.505-6.606,0-9.112l0,0l0,0
			c1.229-1.228,2.85-1.891,4.568-1.891C211.447,88.269,213.068,88.932,214.271,90.16z"/>
		<path fill="#666666" d="M192.807,42.194c0.441,0.442,1.006,0.663,1.571,0.663s1.13-0.221,1.571-0.663l7.786-7.785
			c1.769,1.154,3.807,1.792,5.968,1.792c2.923,0,5.648-1.129,7.712-3.192c2.063-2.063,3.192-4.79,3.192-7.712
			c0-2.923-1.129-5.649-3.192-7.712s-4.789-3.193-7.712-3.193c-2.922,0-5.648,1.13-7.712,3.193s-3.192,4.789-3.192,7.712
			c0,2.161,0.613,4.224,1.793,5.968l-7.785,7.786C191.946,39.91,191.946,41.334,192.807,42.194z M205.16,20.729
			c1.228-1.228,2.849-1.891,4.568-1.891c1.719,0,3.34,0.663,4.567,1.891c2.505,2.505,2.505,6.607,0,9.136
			c-1.228,1.228-2.849,1.891-4.567,1.891c-1.72,0-3.341-0.663-4.568-1.891l0,0l0,0C202.63,27.335,202.63,23.234,205.16,20.729z"/>
		<path fill="#666666" d="M157.194,77.807c-0.859-0.86-2.284-0.86-3.144,0l-7.786,7.785c-1.768-1.154-3.807-1.793-5.968-1.793
			c-2.923,0-5.649,1.129-7.712,3.192s-3.193,4.79-3.193,7.712c0,2.923,1.13,5.648,3.193,7.712s4.789,3.192,7.712,3.192
			c2.922,0,5.648-1.129,7.712-3.192c2.063-2.063,3.192-4.789,3.192-7.712c0-2.161-0.614-4.225-1.792-5.968l7.785-7.786
			C158.054,80.09,158.054,78.666,157.194,77.807z M144.84,99.271c-1.228,1.229-2.849,1.891-4.568,1.891
			c-1.719,0-3.34-0.662-4.568-1.891c-2.505-2.506-2.505-6.607,0-9.137c1.228-1.228,2.849-1.891,4.568-1.891
			c1.719,0,3.34,0.663,4.568,1.891l0,0l0,0C147.37,92.664,147.37,96.766,144.84,99.271z"/>
		<path fill="#666666" d="M177.824,57.716h-5.648c-2.186,0-3.954-1.768-3.954-3.954c0-2.186,1.768-3.954,3.954-3.954h9.947
			c1.228,0,2.234-1.007,2.234-2.235s-1.007-2.235-2.234-2.235h-4.912v-3.684c0-1.228-1.008-2.235-2.235-2.235
			c-1.228,0-2.235,1.007-2.235,2.235v3.684h-0.589c-4.642,0-8.424,3.782-8.424,8.424c0,4.642,3.782,8.424,8.424,8.424h5.649
			c2.187,0,3.954,1.769,3.954,3.955c0,2.186-1.768,3.953-3.954,3.953h-10.143c-1.228,0-2.235,1.008-2.235,2.235
			s1.007,2.235,2.235,2.235h5.083v3.758c0,1.228,1.007,2.234,2.235,2.234c1.228,0,2.235-1.007,2.235-2.234v-3.758h0.589
			c4.642,0,8.425-3.783,8.425-8.424C186.225,61.498,182.467,57.716,177.824,57.716z"/>
		<path fill="#666666" d="M164.095,10.905c0,5.256,3.733,9.652,8.67,10.684v11.002c0,1.228,1.007,2.235,2.235,2.235
			c1.229,0,2.234-1.007,2.234-2.235V21.588c4.938-1.032,8.67-5.428,8.67-10.684C185.904,4.887,181.018,0,175,0
			C168.983,0,164.095,4.887,164.095,10.905z M181.459,10.905c0,3.561-2.898,6.459-6.459,6.459c-3.561,0-6.459-2.898-6.459-6.459
			c0-3.562,2.898-6.459,6.459-6.459C178.561,4.445,181.459,7.343,181.459,10.905z"/>
		<path fill="#666666" d="M213.412,57.765h-11.004c-1.227,0-2.234,1.007-2.234,2.235c0,1.229,1.008,2.234,2.234,2.234h11.004
			c1.031,4.938,5.428,8.67,10.684,8.67C230.113,70.904,235,66.018,235,60c0-6.017-4.887-10.905-10.904-10.905
			C218.84,49.095,214.443,52.829,213.412,57.765z M230.555,60c0,3.561-2.898,6.459-6.459,6.459c-3.562,0-6.459-2.898-6.459-6.459
			l0,0l0,0c0-3.561,2.897-6.459,6.459-6.459C227.656,53.541,230.555,56.439,230.555,60z"/>
		<path fill="#666666" d="M125.905,70.904c5.256,0,9.652-3.732,10.684-8.67h11.003c1.228,0,2.235-1.006,2.235-2.234
			c0-1.228-1.007-2.235-2.235-2.235h-11.003c-1.032-4.937-5.428-8.67-10.684-8.67C119.887,49.095,115,53.983,115,60
			C115,66.018,119.887,70.904,125.905,70.904z M125.905,53.541c3.561,0,6.459,2.898,6.459,6.459l0,0l0,0
			c0,3.561-2.898,6.459-6.459,6.459c-3.562,0-6.459-2.898-6.459-6.459C119.445,56.439,122.343,53.541,125.905,53.541z"/>
		<path fill="#666666" d="M147.984,17.561c-2.063-2.063-4.789-3.193-7.712-3.193c-2.922,0-5.648,1.13-7.711,3.193
			s-3.193,4.789-3.193,7.712c0,2.922,1.13,5.648,3.193,7.711s4.789,3.193,7.711,3.193c2.162,0,4.225-0.614,5.968-1.793l7.786,7.786
			c0.442,0.442,1.007,0.663,1.572,0.663s1.13-0.221,1.572-0.663c0.86-0.859,0.86-2.284,0-3.144l-7.761-7.761
			c1.154-1.768,1.792-3.807,1.792-5.968C151.177,22.374,150.047,19.624,147.984,17.561z M135.729,29.84
			c-2.505-2.505-2.505-6.606,0-9.136c1.228-1.228,2.849-1.891,4.568-1.891s3.34,0.663,4.568,1.891c2.505,2.505,2.505,6.606,0,9.112
			l0,0l0,0c-1.228,1.228-2.849,1.891-4.568,1.891C138.553,31.731,136.932,31.068,135.729,29.84z"/>
	</g>
</g>
</svg>
