<?xml version="1.0" encoding="utf-8"?>
<!-- Generator: Adobe Illustrator 16.0.0, SVG Export Plug-In . SVG Version: 6.00 Build 0)  -->
<!DOCTYPE svg PUBLIC "-//W3C//DTD SVG 1.1//EN" "http://www.w3.org/Graphics/SVG/1.1/DTD/svg11.dtd">
<svg version="1.1" id="Layer_1" xmlns="http://www.w3.org/2000/svg" xmlns:xlink="http://www.w3.org/1999/xlink" x="0px" y="0px"
	 width="133px" height="120px" viewBox="108.5 0 133 120" enable-background="new 108.5 0 133 120" xml:space="preserve">
<g>
	<g>
		<g id="XMLID_1164_" opacity="0.5">
			<path id="XMLID_1165_" fill="#920100" d="M159.944,85.915c-4.61,3.58-9.882,4.438-13.34,3.899
				c-1.128-0.172-1.373-1.717-0.343-2.207c3.311-1.619,5.248-5.199,6.351-7.725c-10.471-11.844-10.054-29.941,1.275-41.27
				c11.771-11.771,30.848-11.771,42.619,0c11.77,11.77,11.77,30.848,0,42.618C186.599,91.162,171.494,92.707,159.944,85.915z"/>
		</g>
		<path fill="#666666" d="M214.381,99.133l-0.072-6.72c-0.025-1.226-1.03-2.231-2.256-2.206c-1.227,0.023-2.207,1.029-2.207,2.256
			l0.146,12.088c0,0.59,0.245,1.153,0.662,1.57c0.417,0.416,0.98,0.637,1.545,0.637h0.024l12.089-0.146
			c1.227-0.024,2.207-1.029,2.207-2.256c-0.024-1.227-1.006-2.207-2.231-2.207h-0.024l-6.719,0.073l0.318-0.343
			c11.182-11.451,17.264-26.582,17.067-42.594c-0.196-16.013-6.597-30.995-18.048-42.202c-8.19-8.019-18.44-13.487-29.622-15.816
			c-10.888-2.256-22.143-1.496-32.589,2.256c-1.153,0.417-1.766,1.692-1.349,2.844c0.417,1.152,1.692,1.766,2.845,1.349
			c20.181-7.234,42.25-2.428,57.577,12.555c10.594,10.373,16.527,24.227,16.699,39.063S225,88.171,214.627,98.764L214.381,99.133z"
			/>
		<path fill="#666666" d="M195.328,116.42c1.152-0.417,1.766-1.691,1.35-2.845c-0.418-1.152-1.693-1.766-2.846-1.349
			c-20.181,7.234-42.25,2.428-57.576-12.555c-10.593-10.373-16.527-24.228-16.699-39.062c-0.196-14.812,5.395-28.813,15.768-39.407
			l0.319-0.343l0.073,6.719c0.025,1.227,1.005,2.207,2.231,2.207h0.025c1.226-0.024,2.207-1.03,2.207-2.256l-0.147-12.089
			c-0.024-1.226-1.005-2.207-2.231-2.207h-0.024l-12.089,0.147c-1.226,0.024-2.207,1.03-2.207,2.256
			c0.024,1.226,1.005,2.207,2.231,2.207h0.024l6.719-0.074l-0.319,0.344c-11.182,11.451-17.263,26.581-17.067,42.594
			c0.172,16.013,6.596,30.995,18.048,42.201c8.19,8.02,18.44,13.487,29.622,15.816c4.07,0.858,8.19,1.275,12.285,1.275
			C181.915,119.951,188.781,118.773,195.328,116.42z"/>
		<path fill="#666666" d="M145.304,85.621c-1.324,0.662-2.084,2.084-1.863,3.555c0.221,1.473,1.373,2.625,2.844,2.846
			c0.736,0.122,1.521,0.171,2.33,0.171c3.923,0,8.043-1.323,11.5-3.653c4.635,2.452,9.833,3.727,15.105,3.727
			c8.631,0,16.773-3.359,22.879-9.465c12.604-12.604,12.604-33.153,0-45.757c-6.105-6.106-14.248-9.466-22.879-9.466
			c-8.631,0-16.773,3.36-22.878,9.466c-11.722,11.721-12.629,30.406-2.305,43.183C148.664,82.947,147.07,84.763,145.304,85.621z
			 M155.481,40.207c5.272-5.272,12.285-8.166,19.74-8.166c7.455,0,14.468,2.894,19.74,8.166c10.887,10.888,10.887,28.592,0,39.479
			c-5.272,5.272-12.285,8.166-19.74,8.166c-4.978,0-9.857-1.324-14.125-3.825c-0.343-0.197-0.735-0.319-1.128-0.319
			c-0.49,0-0.956,0.147-1.373,0.466c-3.212,2.502-6.449,3.286-8.509,3.507c1.766-1.618,3.286-3.899,4.586-6.891
			c0.343-0.784,0.196-1.716-0.368-2.354C144.544,67.401,145.059,50.604,155.481,40.207z"/>
		<path fill="#666666" d="M175.024,62.228c0.589,0,1.153-0.245,1.569-0.662c0.417-0.417,0.662-0.981,0.662-1.569
			c0-0.589-0.245-1.153-0.662-1.57c-0.416-0.417-0.98-0.662-1.569-0.662c-0.588,0-1.152,0.246-1.569,0.662
			c-0.417,0.417-0.662,0.981-0.662,1.57c0,0.588,0.245,1.152,0.662,1.569S174.436,62.228,175.024,62.228z"/>
		<path fill="#666666" d="M183.288,62.228c0.589,0,1.153-0.245,1.569-0.662c0.417-0.417,0.662-0.981,0.662-1.569
			c0-0.589-0.245-1.153-0.662-1.57c-0.416-0.417-0.98-0.662-1.569-0.662s-1.152,0.246-1.569,0.662
			c-0.416,0.417-0.662,0.981-0.662,1.57c0,0.588,0.246,1.152,0.662,1.569C182.136,61.982,182.725,62.228,183.288,62.228z"/>
		<path fill="#666666" d="M166.761,62.228c0.588,0,1.152-0.245,1.569-0.662s0.662-0.981,0.662-1.569c0-0.589-0.245-1.153-0.662-1.57
			c-0.417-0.417-0.981-0.662-1.569-0.662s-1.152,0.246-1.569,0.662c-0.417,0.417-0.662,0.981-0.662,1.57
			c0,0.588,0.245,1.152,0.662,1.569C165.583,61.982,166.172,62.228,166.761,62.228z"/>
	</g>
</g>
</svg>
