<?xml version="1.0" encoding="utf-8"?>
<!-- Generator: Adobe Illustrator 16.0.0, SVG Export Plug-In . SVG Version: 6.00 Build 0)  -->
<!DOCTYPE svg PUBLIC "-//W3C//DTD SVG 1.1//EN" "http://www.w3.org/Graphics/SVG/1.1/DTD/svg11.dtd">
<svg version="1.1" id="Layer_1" xmlns="http://www.w3.org/2000/svg" xmlns:xlink="http://www.w3.org/1999/xlink" x="0px" y="0px"
	 width="133px" height="120px" viewBox="108.5 0 133 120" enable-background="new 108.5 0 133 120" xml:space="preserve">
<g>
	<g>
		<circle id="XMLID_4231_" opacity="0.5" fill="#920100" cx="132.633" cy="92.241" r="15.429"/>
		<circle id="XMLID_4230_" opacity="0.5" fill="#920100" cx="217.367" cy="92.241" r="15.429"/>
		<circle id="XMLID_4216_" opacity="0.5" fill="#920100" cx="174.216" cy="18.404" r="15.428"/>
		<path fill="#666666" d="M198.094,111.195c-0.539-1.102-1.861-1.566-2.963-1.027c-6.344,3.061-13.176,4.628-20.278,4.628
			c-10.751,0-21.11-3.698-29.412-10.433c2.988-3.159,4.824-7.42,4.824-12.098c0-9.723-7.91-17.633-17.632-17.633
			c-9.723,0-17.633,7.91-17.633,17.633s7.91,17.633,17.633,17.633c3.404,0,6.612-0.98,9.306-2.67c9.208,7.764,20.816,12,32.914,12
			c7.788,0,15.257-1.715,22.212-5.069C198.168,113.621,198.633,112.298,198.094,111.195z M119.433,92.24
			c0-7.273,5.927-13.199,13.2-13.199s13.2,5.926,13.2,13.199s-5.926,13.201-13.2,13.201S119.433,99.514,119.433,92.24z"/>
		<path fill="#666666" d="M123.841,65.742c-0.049,1.225,0.906,2.254,2.155,2.303c0.024,0,0.049,0,0.073,0
			c1.2,0,2.18-0.955,2.229-2.155c0.539-15.894,8.988-30.269,22.58-38.473c2.131-1.273,4.359-2.4,6.637-3.331
			c2.375,6.93,8.963,11.951,16.678,11.951c9.722,0,17.632-7.91,17.632-17.632c0-9.723-7.91-17.633-17.632-17.633
			c-9.723,0-17.633,7.91-17.633,17.633c0,0.44,0.024,0.857,0.049,1.273c-2.768,1.077-5.486,2.4-8.033,3.943
			C133.686,32.583,124.429,48.331,123.841,65.742z M174.216,5.204c7.274,0,13.2,5.927,13.2,13.2s-5.926,13.175-13.2,13.175
			c-7.273,0-13.2-5.926-13.2-13.2C161.016,11.106,166.918,5.204,174.216,5.204z"/>
		<path fill="#666666" d="M217.367,74.608c-9.723,0-17.633,7.91-17.633,17.632c0,9.723,7.91,17.633,17.633,17.633
			S235,101.963,235,92.24c0-6.832-3.918-12.783-9.625-15.697c0.49-2.89,0.76-5.828,0.76-8.768c0-17.388-8.719-33.429-23.314-42.931
			c-1.028-0.661-2.4-0.367-3.061,0.662c-0.662,1.028-0.368,2.4,0.66,3.061c13.348,8.669,21.307,23.314,21.307,39.208
			c0,2.425-0.195,4.85-0.563,7.249C219.939,74.755,218.666,74.608,217.367,74.608z M230.567,92.24c0,7.273-5.927,13.201-13.2,13.201
			s-13.199-5.928-13.199-13.201s5.926-13.199,13.199-13.199S230.567,84.967,230.567,92.24z"/>
	</g>
</g>
</svg>
