<?xml version="1.0" encoding="utf-8"?>
<!-- Generator: Adobe Illustrator 16.0.0, SVG Export Plug-In . SVG Version: 6.00 Build 0)  -->
<!DOCTYPE svg PUBLIC "-//W3C//DTD SVG 1.1//EN" "http://www.w3.org/Graphics/SVG/1.1/DTD/svg11.dtd">
<svg version="1.1" id="Layer_1" xmlns="http://www.w3.org/2000/svg" xmlns:xlink="http://www.w3.org/1999/xlink" x="0px" y="0px"
	 width="133px" height="120px" viewBox="108.5 0 133 120" enable-background="new 108.5 0 133 120" xml:space="preserve">
<g>
	<g>
		<circle opacity="0.5" fill="#920100" cx="175" cy="59.991" r="14.402"/>
		<g>
			<path fill="#666666" d="M175,76.598c-9.161,0-16.606-7.446-16.606-16.607S165.839,43.384,175,43.384
				c9.16,0,16.607,7.446,16.607,16.606S184.16,76.598,175,76.598z M175,47.817c-6.711,0-12.173,5.462-12.173,12.173
				c0,6.711,5.462,12.173,12.173,12.173s12.174-5.462,12.174-12.173C187.174,53.28,181.711,47.817,175,47.817z"/>
		</g>
		<path fill="#666666" d="M175,33.636c1.225,0,2.229-1.004,2.229-2.229V7.575l4.948,4.948c0.44,0.441,1.005,0.661,1.567,0.661
			c0.563,0,1.127-0.22,1.568-0.661c0.856-0.857,0.856-2.278,0-3.135l-8.744-8.744c-0.857-0.857-2.278-0.857-3.136,0l-8.744,8.744
			c-0.857,0.857-0.857,2.278,0,3.135c0.857,0.857,2.278,0.857,3.135,0l4.947-4.948v23.832C172.771,32.656,173.775,33.636,175,33.636
			z"/>
		<path fill="#666666" d="M164.688,110.595l8.744,8.744c0.441,0.44,1.004,0.661,1.567,0.661c0.563,0,1.127-0.221,1.568-0.661
			l8.744-8.744c0.856-0.857,0.856-2.278,0-3.136c-0.857-0.857-2.278-0.857-3.136,0l-4.948,4.948V88.574
			c0-1.225-1.004-2.229-2.229-2.229s-2.229,1.004-2.229,2.229v23.833l-4.947-4.948c-0.857-0.857-2.278-0.857-3.135,0
			C163.831,108.316,163.831,109.713,164.688,110.595z"/>
		<path fill="#666666" d="M124.396,70.303c0.441,0.441,1.004,0.661,1.567,0.661c0.563,0,1.127-0.22,1.568-0.661
			c0.857-0.857,0.857-2.277,0-3.135l-4.948-4.948h23.832c1.225,0,2.229-1.005,2.229-2.229c0-1.225-1.004-2.229-2.229-2.229h-23.832
			l4.948-4.947c0.857-0.857,0.857-2.278,0-3.135c-0.857-0.857-2.278-0.857-3.135,0l-8.744,8.744c-0.857,0.857-0.857,2.278,0,3.135
			L124.396,70.303z"/>
		<path fill="#666666" d="M201.355,59.991c0,1.224,1.004,2.229,2.229,2.229h23.832l-4.947,4.948c-0.857,0.857-0.857,2.277,0,3.135
			c0.441,0.441,1.004,0.661,1.567,0.661s1.127-0.22,1.567-0.661l8.744-8.744c0.857-0.857,0.857-2.278,0-3.135l-8.744-8.744
			c-0.857-0.857-2.277-0.857-3.135,0c-0.857,0.857-0.857,2.278,0,3.135l4.947,4.947h-23.832
			C202.335,57.762,201.355,58.766,201.355,59.991z"/>
		<path fill="#666666" d="M148.743,19.136c0-1.225-1.004-2.229-2.229-2.229h-12.369c-1.225,0-2.229,1.004-2.229,2.229v12.369
			c0,1.225,1.004,2.229,2.229,2.229s2.229-1.004,2.229-2.229V24.5l16.852,16.852c0.44,0.441,1.004,0.662,1.567,0.662
			s1.126-0.221,1.567-0.662c0.857-0.857,0.857-2.278,0-3.135l-16.852-16.852h7.005C147.739,21.364,148.743,20.36,148.743,19.136z"/>
		<path fill="#666666" d="M193.64,81.766l16.852,16.852h-7.005c-1.225,0-2.229,1.004-2.229,2.229s1.004,2.229,2.229,2.229h12.369
			c1.225,0,2.229-1.005,2.229-2.229V88.477c0-1.225-1.004-2.229-2.229-2.229s-2.229,1.004-2.229,2.229v7.006l-16.852-16.852
			c-0.857-0.857-2.278-0.857-3.136,0C192.758,79.488,192.758,80.884,193.64,81.766z"/>
		<path fill="#666666" d="M134.145,86.248c-1.225,0-2.229,1.004-2.229,2.229v12.369c0,1.225,1.004,2.229,2.229,2.229h12.369
			c1.225,0,2.229-1.005,2.229-2.229s-1.004-2.229-2.229-2.229h-7.005l16.852-16.852c0.857-0.857,0.857-2.277,0-3.135
			c-0.857-0.857-2.278-0.857-3.135,0l-16.852,16.852v-7.006C136.374,87.252,135.37,86.248,134.145,86.248z"/>
		<path fill="#666666" d="M193.64,41.351c0.44,0.441,1.005,0.662,1.567,0.662c0.563,0,1.127-0.221,1.568-0.662L213.627,24.5v7.005
			c0,1.225,1.004,2.229,2.229,2.229s2.229-1.004,2.229-2.229V19.136c0-1.225-1.004-2.229-2.229-2.229h-12.369
			c-1.225,0-2.229,1.004-2.229,2.229s1.004,2.229,2.229,2.229h7.005L193.64,38.216C192.758,39.098,192.758,40.494,193.64,41.351z"/>
	</g>
</g>
</svg>
