<?xml version="1.0" encoding="utf-8"?>
<!-- Generator: Adobe Illustrator 16.0.0, SVG Export Plug-In . SVG Version: 6.00 Build 0)  -->
<!DOCTYPE svg PUBLIC "-//W3C//DTD SVG 1.1//EN" "http://www.w3.org/Graphics/SVG/1.1/DTD/svg11.dtd">
<svg version="1.1" id="Layer_1" xmlns="http://www.w3.org/2000/svg" xmlns:xlink="http://www.w3.org/1999/xlink" x="0px" y="0px"
	 width="133px" height="120px" viewBox="108.5 0 133 120" enable-background="new 108.5 0 133 120" xml:space="preserve">
<g>
	<g>
		<path id="XMLID_2038_" opacity="0.5" fill="#920100" d="M174.98,24.313c0.024,0,0.049,0,0.049,0l0,0
			c9.902-0.098,8.456-13.333,8.456-13.333c-0.392-8.848-7.77-8.774-8.505-8.75c-0.735-0.024-8.113-0.098-8.529,8.726
			c0,0-1.446,13.235,8.48,13.333l0,0C174.931,24.313,174.956,24.313,174.98,24.313z"/>
		<path id="XMLID_2039_" opacity="0.5" fill="#920100" d="M174.98,40.76l6.396-8.823c0,0,4.51,1.813,8.188,4.534
			c0.955,0.71,1.396,1.127,2.254,1.985c2.035,2.034,1.177,13.823,0,18.137c-1.176,4.313-4.632,10.514-4.632,10.514
			c-0.687,1.568-1.128,3.26-1.3,4.951l-4.411,43.26c-0.147,1.373-1.3,2.427-2.672,2.427h-3.823h-3.824
			c-1.373,0-2.549-1.054-2.671-2.427l-4.412-43.26c-0.172-1.715-0.613-3.383-1.299-4.951c0,0-3.456-6.176-4.632-10.514
			c-1.176-4.314-2.034-16.103,0-18.137c0.858-0.858,1.299-1.274,2.255-1.985c3.677-2.696,8.187-4.534,8.187-4.534L174.98,40.76z"/>
		<path fill="#666666" d="M125.226,60.98c1.103,4.02,4.044,9.436,4.485,10.27c0.539,1.25,0.882,2.549,1.005,3.896l4.142,40.589
			c0.245,2.427,2.279,4.265,4.73,4.265h7.157c2.451,0,4.485-1.838,4.73-4.265l4.142-40.589c0.147-1.372,0.49-2.721,1.054-3.971
			c0.49-1.127-0.024-2.426-1.127-2.916c-1.127-0.49-2.426,0.024-2.917,1.127c-0.735,1.691-1.226,3.48-1.397,5.319l-4.142,40.588
			c-0.024,0.147-0.147,0.271-0.294,0.271h-7.157c-0.147,0-0.294-0.123-0.294-0.271l-4.191-40.612
			c-0.196-1.838-0.662-3.628-1.397-5.318c-0.024-0.074-0.049-0.123-0.098-0.197c-0.024-0.049-3.113-5.612-4.142-9.362
			c-1.127-4.191-1.446-13.309-0.515-14.926c0.735-0.735,1.054-1.029,1.814-1.593c1.936-1.421,4.167-2.573,5.612-3.26l4.951,6.814
			c0.417,0.563,1.079,0.907,1.789,0.907c0.711,0,1.373-0.343,1.79-0.907l6.005-8.26c0.71-0.98,0.49-2.377-0.49-3.113
			c-0.98-0.711-2.377-0.49-3.113,0.49l-4.216,5.784l-4.167-5.76c-0.588-0.833-1.691-1.127-2.623-0.76
			c-0.172,0.073-4.534,1.838-8.162,4.51c-1.03,0.76-1.52,1.226-2.377,2.083C122.676,44.951,124.417,57.99,125.226,60.98z"/>
		<path fill="#666666" d="M142.971,32.329c0.049,0,0.098,0,0.147,0c0.024,0,0.074,0,0.098,0c0.049,0,0.098,0,0.171,0
			c2.843-0.074,5.245-1.103,6.961-3.04c3.652-4.118,3.137-10.98,3.039-11.838c-0.368-7.574-5.637-10.245-10.024-10.245
			c-0.074,0-0.147,0-0.196,0c-0.049,0-0.123,0-0.196,0c-4.387,0-9.632,2.696-10.024,10.245c-0.074,0.857-0.613,7.72,3.039,11.838
			C137.726,31.226,140.127,32.279,142.971,32.329z M137.382,17.843c0-0.049,0-0.098,0-0.147c0.245-5.294,3.603-6.079,5.588-6.079
			h0.098c0.049,0,0.123,0,0.171,0h0.098c1.985,0,5.343,0.784,5.588,6.079c0,0.049,0,0.098,0,0.123
			c0.172,1.568,0.123,6.152-1.96,8.505c-0.907,1.029-2.157,1.544-3.799,1.544c-0.024,0-0.024,0-0.049,0l0,0
			c-1.642-0.024-2.892-0.515-3.799-1.544C137.26,23.995,137.235,19.412,137.382,17.843z"/>
		<path fill="#666666" d="M194.441,68.235c-1.128,0.49-1.643,1.813-1.128,2.917c0.563,1.273,0.907,2.598,1.054,3.971l4.143,40.588
			c0.245,2.426,2.279,4.265,4.73,4.265h7.156c2.451,0,4.486-1.839,4.73-4.265l4.143-40.588c0.146-1.349,0.466-2.647,1.005-3.897
			c0.441-0.81,3.407-6.226,4.485-10.27c0.809-2.99,2.574-16.03-0.563-19.167c-0.858-0.858-1.349-1.323-2.378-2.083
			c-3.627-2.672-7.965-4.437-8.162-4.51c-0.955-0.393-2.033-0.074-2.622,0.76l-4.216,5.784l-4.24-5.76
			c-0.711-1.005-2.107-1.201-3.112-0.49c-0.98,0.711-1.201,2.108-0.49,3.113l6.005,8.26c0.416,0.563,1.078,0.907,1.789,0.907
			s1.373-0.343,1.789-0.907l4.951-6.814c1.446,0.687,3.676,1.838,5.613,3.26c0.734,0.54,1.053,0.858,1.812,1.593
			c0.932,1.618,0.613,10.735-0.514,14.927c-1.029,3.75-4.118,9.314-4.143,9.363s-0.073,0.122-0.098,0.195
			c-0.735,1.691-1.226,3.48-1.397,5.319l-4.142,40.588c-0.025,0.147-0.147,0.271-0.295,0.271h-7.156
			c-0.147,0-0.295-0.123-0.295-0.271l-4.142-40.588c-0.196-1.839-0.661-3.628-1.397-5.319
			C196.867,68.235,195.568,67.745,194.441,68.235z"/>
		<path fill="#666666" d="M206.574,32.329c0.049,0,0.098,0,0.171,0c0.024,0,0.073,0,0.099,0c0.049,0,0.098,0,0.146,0
			c2.844-0.049,5.245-1.103,6.985-3.04c3.651-4.118,3.138-10.98,3.039-11.838c-0.368-7.574-5.612-10.245-10.024-10.245
			c-0.074,0-0.146,0-0.196,0c-0.049,0-0.122,0-0.196,0c-4.387,0-9.632,2.696-10.023,10.245c-0.074,0.857-0.613,7.72,3.039,11.838
			C201.328,31.226,203.73,32.255,206.574,32.329z M200.985,17.843c0-0.049,0-0.098,0-0.147c0.245-5.294,3.603-6.079,5.589-6.079
			h0.098c0.049,0,0.122,0,0.172,0h0.098c1.984,0,5.343,0.784,5.588,6.079c0,0.049,0,0.098,0,0.123
			c0.172,1.568,0.123,6.152-1.961,8.505c-0.906,1.029-2.156,1.52-3.799,1.544l0,0c-0.024,0-0.024,0-0.049,0
			c-1.643-0.024-2.893-0.515-3.799-1.544C200.863,23.995,200.838,19.412,200.985,17.843z"/>
		<path fill="#666666" d="M156.574,36.887c-3.309,3.309-1.446,17.108-0.564,20.294c1.176,4.29,4.314,10.074,4.779,10.907
			c0.588,1.349,0.956,2.746,1.103,4.191l4.412,43.26c0.245,2.524,2.353,4.412,4.902,4.412h7.622c2.525,0,4.633-1.912,4.902-4.412
			l4.412-43.26c0.146-1.445,0.514-2.867,1.103-4.191c0.466-0.857,3.603-6.617,4.779-10.907c0.858-3.186,2.745-16.985-0.563-20.294
			c-0.907-0.907-1.422-1.397-2.5-2.206c-3.848-2.843-8.48-4.706-8.677-4.804c-0.956-0.392-2.034-0.074-2.622,0.76l-4.682,6.348
			l-4.608-6.348c-0.588-0.833-1.691-1.127-2.623-0.76c-0.196,0.074-4.804,1.961-8.676,4.804
			C157.995,35.49,157.456,35.98,156.574,36.887z M159.76,39.976c0.809-0.809,1.152-1.127,1.961-1.716
			c2.108-1.568,4.559-2.818,6.127-3.554l5.343,7.353c0.417,0.564,1.078,0.907,1.789,0.907s1.373-0.343,1.789-0.907l5.344-7.353
			c1.543,0.735,3.994,1.985,6.127,3.554c0.809,0.588,1.152,0.907,1.961,1.716c1.029,1.667,0.711,11.495-0.539,16.029
			c-1.104,4.02-4.388,9.951-4.437,10c-0.024,0.049-0.073,0.122-0.099,0.196c-0.783,1.789-1.299,3.676-1.494,5.637l-4.412,43.26
			c-0.024,0.246-0.221,0.417-0.466,0.417h-7.623c-0.245,0-0.441-0.171-0.466-0.417l-4.412-43.26
			c-0.196-1.936-0.686-3.848-1.495-5.637c-0.024-0.074-0.049-0.123-0.098-0.196c-0.024-0.049-3.333-6.005-4.436-10.024
			C159.049,51.471,158.73,41.642,159.76,39.976z"/>
		<path fill="#666666" d="M174.76,26.52c0.049,0,0.123,0,0.171,0c0.025,0,0.098,0,0.123,0c0.049,0,0.098,0,0.147,0
			c3.039-0.049,5.49-1.127,7.328-3.211c3.873-4.338,3.285-11.642,3.211-12.524C185.348,2.819,179.834,0,175.201,0
			c-0.074,0-0.147,0-0.221,0c-0.049,0-0.123,0-0.221,0c-4.608,0-10.147,2.819-10.539,10.784c-0.074,0.882-0.662,8.162,3.21,12.5
			C169.27,25.368,171.745,26.446,174.76,26.52z M168.657,11.201c0-0.049,0-0.098,0-0.147c0.27-5.98,4.363-6.617,6.103-6.617h0.123
			c0.049,0,0.123,0,0.171,0h0.123c1.74,0,5.833,0.637,6.103,6.617c0,0.049,0,0.098,0,0.123c0.172,1.691,0.146,6.643-2.107,9.167
			c-1.006,1.127-2.378,1.691-4.167,1.691c-0.024,0-0.049,0-0.074,0c-1.789-0.024-3.162-0.563-4.167-1.691
			C168.51,17.843,168.485,12.892,168.657,11.201z"/>
	</g>
</g>
</svg>
