<?xml version="1.0" encoding="utf-8"?>
<!-- Generator: Adobe Illustrator 16.0.0, SVG Export Plug-In . SVG Version: 6.00 Build 0)  -->
<!DOCTYPE svg PUBLIC "-//W3C//DTD SVG 1.1//EN" "http://www.w3.org/Graphics/SVG/1.1/DTD/svg11.dtd">
<svg version="1.1" id="Layer_1" xmlns="http://www.w3.org/2000/svg" xmlns:xlink="http://www.w3.org/1999/xlink" x="0px" y="0px"
	 width="133px" height="120px" viewBox="108.5 0 133 120" enable-background="new 108.5 0 133 120" xml:space="preserve">
<g>
	<g>
		<path fill="#666666" d="M135.88,95.293h26.333c0.709,2.104,2.689,3.619,5.012,3.619h15.525c2.323,0,4.304-1.516,5.013-3.619
			h26.356c1.223,0,2.226-1.002,2.226-2.225s-1.003-2.225-2.226-2.225h-28.288c-1.222,0-2.225,1.002-2.225,2.225v0.538
			c0,0.464-0.392,0.855-0.856,0.855h-15.525c-0.465,0-0.856-0.392-0.856-0.855v-0.538c0-1.223-1.002-2.225-2.225-2.225H135.88
			c-1.223,0-2.225,1.002-2.225,2.225C133.68,94.291,134.658,95.293,135.88,95.293z"/>
		<path fill="#666666" d="M232.775,90.844h-6.602V34.609c0-1.223-1.002-2.225-2.225-2.225s-2.226,1.002-2.226,2.225v58.459
			c0,1.223,1.003,2.225,2.226,2.225h6.576v3.546c0,3.569-2.909,6.454-6.455,6.454h-98.166c-3.57,0-6.455-2.909-6.455-6.454v-3.546
			h6.577c1.223,0,2.225-1.002,2.225-2.225V34.609c0-1.223-1.002-2.225-2.225-2.225s-2.225,1.002-2.225,2.225v56.235h-6.577
			c-1.223,0-2.225,1.002-2.225,2.225v5.771c0,6.015,4.89,10.904,10.905,10.904h98.191c6.014,0,10.904-4.89,10.904-10.904v-5.771
			C234.976,91.846,233.998,90.844,232.775,90.844z"/>
		<path opacity="0.5" fill="#920100" d="M211.553,48.893c0,6.627-6.076,12-13.569,12h-48.093c-7.495,0-13.57-5.373-13.57-12v-24.46
			c0-6.627,6.076-12,13.57-12h48.093c7.493,0,13.569,5.373,13.569,12V48.893z"/>
		<path fill="#666666" d="M184.658,27.274l-14.182,14.107l-5.037-5.061c-0.855-0.88-2.274-0.88-3.129,0
			c-0.88,0.855-0.88,2.274,0,3.129l6.602,6.626c0.44,0.44,1.002,0.66,1.564,0.66c0.562,0,1.125-0.22,1.565-0.636l15.746-15.672
			c0.881-0.855,0.881-2.274,0-3.129C186.907,26.418,185.514,26.418,184.658,27.274z"/>
		<path fill="none" stroke="#666666" stroke-width="5" stroke-miterlimit="10" d="M212.553,49.893c0,6.627-6.076,12-13.569,12
			h-48.093c-7.495,0-13.57-5.373-13.57-12v-24.46c0-6.627,6.076-12,13.57-12h48.093c7.493,0,13.569,5.373,13.569,12V49.893z"/>
	</g>
</g>
</svg>
