<?xml version="1.0" encoding="utf-8"?>
<!-- Generator: Adobe Illustrator 19.2.1, SVG Export Plug-In . SVG Version: 6.00 Build 0)  -->
<svg version="1.1" id="Capa_1" xmlns="http://www.w3.org/2000/svg" xmlns:xlink="http://www.w3.org/1999/xlink" x="0px" y="0px"
	 viewBox="0 0 38 28" style="enable-background:new 0 0 38 28;" xml:space="preserve">
<style type="text/css">
	.st0{fill:#920100;}
</style>
<title>arrow-left-slider</title>
<path id="nvcba" class="st0" d="M0.4,13.2c-0.5,0.5-0.5,1.2,0,1.7c0,0,0,0,0,0L13,27.6c0.5,0.5,1.2,0.5,1.7,0c0,0,0,0,0,0l0,0
	c0.5-0.5,0.5-1.2,0-1.7L4.1,15.2h32.7c0.7,0,1.2-0.5,1.2-1.2s-0.5-1.2-1.2-1.2c0,0,0,0,0,0H4.1L14.7,2.1c0.5-0.5,0.5-1.2,0-1.7
	c-0.5-0.5-1.2-0.5-1.7,0c0,0,0,0,0,0l0,0L0.4,13.2z"/>
</svg>
